<svg version="1" xmlns="http://www.w3.org/2000/svg" width="933.333" height="933.333" viewBox="0 0 700.000000 700.000000"><path d="M320.8 1c-19.6 1.2-20.3 2.5-1.7 3.4 17 .8 35 2.8 47.7 5.3 9.4 1.8 9.2 2.6-1.1 4.7-5.7 1.2-7.9 1.1-22.8-1.1-14-2.1-20.3-2.5-43.9-2.6l-27.5-.2-11 5c-9.2 4.1-12 5.9-17 11-3.3 3.3-7.9 9.5-10.3 13.7-4.6 8.1-13.2 28.2-13.2 30.9 0 1 4.3 3.7 12.5 7.7 6.9 3.4 12.5 6.5 12.5 6.9 0 .5-2.9 3.7-6.3 7.1l-6.4 6.3-8.6-4.2c-4.7-2.4-8.8-4.1-9.1-3.9-.2.3-1.6 7-3.1 15s-3.5 16.4-4.5 18.6c-3.6 8.3-12 15.4-18.3 15.4-2.3 0-2.3-.1-1.5-7.3.7-6 6.4-38.2 8.4-47.9.6-2.6.4-2.7-7.8-5.2-4.6-1.4-9.3-2.6-10.4-2.6-5.2 0-31.9 37-47.4 65.8-3 5.6-5.8 10.2-6.2 10.2-.9 0-3.8-9.7-3.8-12.9 0-5 17.5-32 32.7-50.5 5.4-6.5 10.4-12.7 11.2-13.7 1.3-1.8.9-1.9-9.5-1.9-6 .1-12.9.5-15.4 1-2.5.4-4.7.6-4.9.4-.2-.2.4-1.4 1.5-2.6 2.8-3.2-6.6 3.3-15.6 10.8-8.3 6.9-22.9 21.6-30.7 30.9-9 10.7-26.6 35.1-35.3 48.7-12.6 19.9-31.8 59.1-39.5 80.8C9.8 257.3 4.4 286.9 2 312.5.8 325.5.8 347.7 2 344l.8-2.5.1 2.7c.2 4.9 5.9 25.3 10.1 35.9 10.2 25.6 25.5 47.3 52.9 75.2l15.6 15.8.4 8.6.3 8.5L80 487c-3.1-1.6-25-23.6-34.3-34.3-18.9-21.8-32.7-47.1-40.8-74.6-1.9-6.3-3.6-10.6-3.7-9.6-.9 4.1 3.9 36.8 7.9 54 2.8 12.3 9.3 33.8 14 46.3 4.2 11.2 4.7 13.1 2.4 9.2l-1.5-2.5.6 3c2.9 13.1 12.2 31.6 21.6 43.1 4.1 4.9 11.4 14.4 16.2 21.2 14.7 20.5 26 33.6 49.3 57.1 12.3 12.3 22.3 22.8 22.3 23.4 0 .6-1 .2-2.2-.9-1.3-1.1-7.6-6.6-14-12.3-6.5-5.7-17.5-16.2-24.4-23.4-7-7.3-9.5-9.6-5.6-5.2 9.7 11.1 42.1 42.8 51.3 50.2 10.2 8.3 21.8 15.2 43.4 26.1 44.3 22.1 75.6 32.6 116 38.7 14.7 2.2 60.2 3.8 76.9 2.6 7.6-.5 13.9-1.1 14.1-1.3.2-.2-16.4-.3-36.8-.3-39.9 0-41.3-.1-69.7-6.1-31.1-6.6-65.2-18.1-85.5-28.7-8.5-4.4-2.3-3 16.8 3.9 19.8 7.1 38.8 13.8 42.6 14.9 5 1.5.7-1.5-13-9-11.8-6.4-13.9-7.9-12.4-8.8 3.4-1.9 11.1 0 19.7 4.9C266 677 292 688.4 302 690.8c10 2.4 60.8 5 69 3.5l4.5-.9-9-5.1c-10.1-5.8-26-17.1-25.2-18 .8-.7 18.3 3.4 28.6 6.7 4.7 1.6 12.8 4.9 17.9 7.4 5.2 2.5 11.3 4.8 13.8 5.2 6.5.9 17.2-.9 46.4-8.1 14.4-3.6 27.5-6.5 29.1-6.5 1.6 0 2.9-.3 2.9-.8 0-.4 2.7-1.5 6.1-2.6 8.3-2.6 33-14.9 47.3-23.5 12.4-7.5 28.9-19.7 34-25 3.5-3.6 3.5-3.6-3.3-1.5-2.9.8-5.5 1.3-5.8 1.1-.2-.3 3.9-5.4 9.2-11.4 5.4-5.9 11.7-13.4 14.1-16.5l4.4-5.6v-12.9c-.1-13.1-1.4-27.1-2.7-28.4-.5-.5-4.8 1-9.8 3.2-30.6 13.8-64.3 24.3-97.8 30.5-8.9 1.6-10 1.6-13 .2-3.8-1.9-14.7-9.8-14.7-10.8 0-.4 6.2-1.7 13.8-2.9 33.3-5.3 60.7-12.2 85.7-21.4 14.5-5.4 30.4-12.2 31.9-13.7 1.9-1.9-13.5-45.6-25-70.9-1.9-4-3.4-8-3.4-8.8 0-1.5 9.5-15.9 11.2-16.9 2.7-1.7 30.4 68 33.3 83.9.5 2.4 1.2 3.6 2 3.3 2-.7 24.6-15.6 28.7-18.7 3.4-2.8 3.8-3.7 6.7-15.7 6.6-27.4 9.4-48.9 10.7-83.2l.7-17.6-13.2-6.4c-7.2-3.5-13.1-6.7-13.1-7.1 0-1.2 10.2-9.9 13.6-11.6 2.8-1.4 3.4-1.4 6.2.1 1.7.9 3.3 1.6 3.5 1.6.3 0 .4-2.5.3-5.5-.1-5.3 0-5.5 5.4-11l5.5-5.6 1.2 8.3c.6 4.6 1.2 10.8 1.2 13.8.1 3 .5 6 .9 6.6.4.6 5.6 4.4 11.7 8.5 12.5 8.4 24.2 19 25.1 22.6.4 1.5 1 2.1 1.6 1.5 1.3-1.3 4.7-22.7 5.4-34.2 1.7-26.1-6.2-95.2-13.7-119.5-5.8-18.7-21.5-53.4-34.2-75.5C615.1 111.2 567.6 67.8 494 31c-17.4-8.7-34.2-15.4-46.5-18.5C435.4 9.4 400 3.3 387 2c-14.9-1.5-50.1-2-66.2-1zm98 24.6c9.9 4 35.3 16.8 46.7 23.7 46.6 28 93.6 75.2 125.3 125.7 8.3 13.2 21.2 36.4 23.9 43 2.4 5.8 2.9 10.5 1.3 13-.8 1.2-1.2 1.2-3.6 0-6.7-3.6-11.5-9.6-20.5-26-21.2-38.3-42.4-66.5-71.9-96-32.4-32.5-67.2-56.6-107.4-74.5-8.8-4-16.1-7.6-16.3-8.2-.2-.6 1.3-1.5 3.4-2.1 6.6-1.7 12.1-1.3 19.1 1.4zm-129.5 87.8c10.3 7.4 21.1 15.3 23.9 17.5l5.1 4.1h-6.4c-11.4-.1-25.5-1.7-28.7-3.4-2.9-1.5-25.7-16.9-27.6-18.7-1.3-1.2 10.3-12.9 12.8-12.9 1.2 0 10.6 6.1 20.9 13.4zm56.7 56.1c5.2.8 11 1.9 12.8 2.4 4.7 1.4 15.4 11.3 38 35.1 24.3 25.5 40.6 44 64.7 73.5 10.3 12.6 19.3 23.3 19.9 23.7.6.3 11.7 4.1 24.6 8.3 27.8 9.1 63.2 21.7 71.2 25.2 5.3 2.3 5.6 2.7 4.8 5.2-1.2 4.4-6 13.2-7.4 13.7-.8.3-12.1-3.3-25.2-7.9-29.6-10.4-46.4-16-46.9-15.5-.2.2 4.8 8.2 11.2 17.8 12.6 19.2 23.3 36.8 23.3 38.4 0 .6-3.4 3.1-7.6 5.5-6.4 3.7-7.8 4.2-8.9 3-.7-.8-6.8-10-13.5-20.4-11.4-17.8-31.1-46.4-36.2-52.8-1.9-2.3-4.9-3.6-17.8-7.3-41.6-12-97.6-26-143.5-35.9-31.9-6.8-93.9-18.4-99.2-18.5-2 0-1.6 7.6 1.7 32.6 1.7 12.5 2.9 23.5 2.8 24.3-.2.8-3.9-3.7-8.2-10-12.5-17.9-17.4-26.5-18.2-31.7-.3-2.6-1.1-7.9-1.8-11.7l-1.1-7-4-.9c-7.7-1.6-9.4-2.7-12.9-8.4-4.2-6.5-5.4-11.1-3.5-12.4 1.2-.7 5.4-.6 17.3.5 1.9.2 2-.5 1.7-17.8l-.2-18 9.7-14.8c5.4-8.1 9.9-14.6 10-14.4.2.1.8 15.3 1.4 33.7.6 18.4 1.4 33.7 1.8 34.1.4.3 15.3 3.2 33.2 6.3 54.9 9.8 110.7 22.1 176.5 39 15.9 4.1 29.1 7.3 29.4 7.1.6-.7-4-6.4-20-25-21.4-25-39.2-43.7-69.9-73.8L328.7 168h3.9c2.1 0 8.2.7 13.4 1.5zm-241.3 27.2c.4 1.9-.6 7.7-3.2 17.6-2.1 8.1-3.6 15-3.3 15.3.3.2 5.1.9 10.7 1.3 5.6.5 10.8 1.4 11.5 2 1.9 1.6 9 17.1 8.1 17.9-.8.8-15.6.7-27.1-.2-9.6-.8-8.4-2.7-11.3 17.5-4 27.5-4.6 37.3-4.4 77.4.2 35.5 0 38.7-1.3 35.5-2.8-6.5-10.3-31.6-11.5-38.6-2.1-12 .2-52 4.6-79.1 2.3-14.4 3-13.3-7.6-13.3-9 0-9.1 0-8.5-2.3.3-1.2.6-5.5.6-9.5V231l7.3-.1c3.9 0 8.9-.3 11.1-.7l3.9-.7 3.4-12c4-14.3 6.9-20.6 10.3-22.2 4-2 5.9-1.6 6.7 1.4zm-61.2 38.4c1 3-.4 14.6-1.8 15.7-.7.5-5.2 1.8-10.2 3-4.9 1.2-10.1 2.5-11.4 2.9-2.3.6-2.3.5.9-4.3 5.8-8.4 9.3-12.5 13.9-16 5.1-3.9 7.7-4.3 8.6-1.3zm593.8 51.7c3.9 4 7.7 12.3 7.7 16.8 0 2.7-9.3 13.5-10.6 12.2-1.2-1.3-4.4-16.2-4.4-20.8 0-5 1.7-12 2.8-12 .5 0 2.5 1.7 4.5 3.8zm-420 96c15.1 20.1 15.4 20.6 24.7 52.2 3.4 11.3 9.3 30.1 13.1 41.8 3.9 11.8 6.8 21.6 6.5 21.9-.2.3-4.6 1.4-9.7 2.5-8.6 1.9-9.3 1.9-10.5.4-1.6-2.3-14.2-40.4-20.4-61.9-4.5-15.9-16.7-63.9-18.3-72.5-.4-1.9-.3-3.1.3-2.7.5.3 6.9 8.5 14.3 18.3zM111.5 488.7c1.8 4 4 7.2 6.5 9.2 4.2 3.3 13.5 14.9 12.7 15.7-.2.3-4.2.7-8.8 1-10.8.7-13.1-.4-14-6.6-.4-2.5-.9-10.6-1.3-18-.7-14.9-.9-14.9 4.9-1.3zm163.4 44c1.2 1 5.2 8.2 9 15.9 6.3 12.9 7.2 14.3 10.2 15.2 8 2.6 43.8 6.6 76.4 8.6l20 1.2-10.8 7.2c-13.1 8.7-10.9 8.5-50 4.6-14.7-1.5-27-2.4-27.3-2.1-.4.3 3.2 7.4 8 15.7 4.7 8.2 8.6 15.2 8.6 15.6 0 .8-14.6 7.4-16.4 7.4-2.2 0-5.6-5.1-17.6-26.2l-10.5-18.6-14.5-3.7c-34.4-8.8-60.5-17.7-67.3-22.9-6.3-4.8-6-6.2 1.4-7 12.4-1.2 17.1-.7 31 3.5 20.2 6 38.2 10.9 38.7 10.4.3-.2-1.7-5.2-4.2-11.1-4.7-10.6-4.8-12.2-1.1-12.4.6-.1 3.7-.7 7-1.5 3.3-.7 6.3-1.4 6.6-1.4.4-.1 1.6.7 2.8 1.6zm-139.7 14.2c1.4.6 5.3 5.7 10.2 13.6 15.7 25.3 27.5 40.2 52.3 66.2l15.5 16.3h-13.7l-14.4-14.7c-15.3-15.7-29.6-32.3-37.8-43.8-9.5-13.4-23.3-35.9-23.3-38 0-.8 8.7-.6 11.2.4zM346 650.1c0 1.5-1.8 1-12.7-3.2-5.7-2.3-10.1-4.5-9.6-4.9.4-.5 3.1-1.8 5.8-2.9l5-2 5.8 6.1c3.1 3.3 5.7 6.5 5.7 6.9z"/><path d="M226.5 21.9c-9 3.2-27.7 12.1-43.5 20.7-16.5 8.9-37.2 22-33 20.9 1.4-.3 8.4-1.1 15.7-1.7l13.2-1.2 9.3-7.4c5.1-4.1 17.3-12.8 27-19.4 21.4-14.4 23-16.1 11.3-11.9zM202.9 51.1c-4.1 3.4-8.6 7.3-10.2 8.7l-2.7 2.6 2.2 1.2c1.3.7 4 1.5 6 1.9l3.7.7 3.4-6.9c4.8-9.4 6.7-14.3 5.8-14.3-.4 0-4.1 2.8-8.2 6.1zM656.6 400.2c-.2 2.4-1 11.9-1.6 21.3-1.7 26.4-6.9 56.6-11.4 65.6-.8 1.6-1.1 2.9-.6 2.9 1.4 0 16.4-16.5 22.9-25 3.3-4.4 8.3-11.8 10.9-16.3 5.2-8.8 12.2-24.4 12.2-27 0-2.8-17.3-17.2-29-24.1l-2.9-1.6-.5 4.2zM685.7 440.4c-2.4 7.5-11.9 25.6-18.8 35.6-3.2 4.7-11 14.3-17.3 21.5-10.1 11.4-12.1 14.2-15.7 22.5-7.3 16.7-17.4 36.1-25.7 49.6-11 18-16.5 29-13.9 27.8 2.1-1 22.2-23.4 31.8-35.4 24.7-31 43.7-66.7 56.3-106.1 4.3-13.2 6.3-20.9 5.4-20.9-.2 0-1.2 2.4-2.1 5.4zM611.5 529.6c-5 3-9.6 6.2-10.3 6.9-1.1 1-1.2 4-.7 14.6l.8 13.3 2-2.5c3.6-4.5 18.1-35.2 17.5-37.1-.2-.5-4.4 1.7-9.3 4.8zM78 570.5c1.3 1.4 2.6 2.5 2.8 2.5.3 0-.5-1.1-1.8-2.5s-2.6-2.5-2.8-2.5c-.3 0 .5 1.1 1.8 2.5zM454 682.6c-5.8 1.8-17.5 5-26 7-8.5 2.1-15 3.9-14.3 4.1 2.4.8 35.4-7.7 47.3-12.1 9.3-3.6 5.3-3-7 1zM392.8 696.7c.7.3 1.6.2 1.9-.1.4-.3-.2-.6-1.3-.5-1.1 0-1.4.3-.6.6z"/></svg>